<svg width="250" height="250" viewBox="0 0 250 250" fill="none" xmlns="http://www.w3.org/2000/svg">
<path d="M243.75 125C243.75 189.475 190.588 241.75 125 241.75C59.4122 241.75 6.25 189.475 6.25 125C6.25 60.5247 59.4122 8.25 125 8.25C190.588 8.25 243.75 60.5247 243.75 125Z" stroke="#c8d505" stroke-width=".5"/>
<path d="M62.671 166.226C59.0428 167.287 55.6241 167.423 52.4151 166.636C49.206 165.849 46.4366 164.277 44.1068 161.92C41.777 159.563 40.0305 156.585 38.8674 152.987C37.8425 149.349 37.651 145.917 38.2929 142.692C38.9347 139.466 40.3809 136.662 42.6314 134.279C44.8819 131.896 47.8213 130.174 51.4495 129.114C55.0777 128.053 58.479 127.922 61.6535 128.719C64.8626 129.506 67.6372 131.095 69.9774 133.487C72.3418 135.834 74.1003 138.789 75.253 142.352C76.2675 145.956 76.4418 149.393 75.7757 152.663C75.1339 155.889 73.6877 158.693 71.4372 161.076C69.2212 163.449 66.2992 165.166 62.671 166.226ZM61.3425 161.833C64.1069 161.025 66.3208 159.703 67.9844 157.866C69.648 156.03 70.6924 153.887 71.1176 151.437C71.5428 148.988 71.3491 146.419 70.5364 143.731C69.7237 141.043 68.4587 138.788 66.7416 136.964C65.0244 135.141 62.9589 133.907 60.5451 133.262C58.1313 132.618 55.5423 132.699 52.7779 133.507C49.979 134.325 47.7478 135.652 46.0842 137.489C44.4551 139.315 43.428 141.453 43.0028 143.903C42.5776 146.352 42.7714 148.921 43.5841 151.609C44.3968 154.297 45.6617 156.552 47.3789 158.376C49.096 160.199 51.1442 161.438 53.5235 162.093C55.9373 162.737 58.5436 162.651 61.3425 161.833ZM89.5832 158.079C88.9267 158.271 88.3061 158.208 87.7214 157.892C87.1368 157.575 86.7455 157.089 86.5475 156.435L79.8427 134.26C79.6448 133.605 79.7026 132.988 80.0164 132.409C80.3197 131.795 80.7997 131.393 81.4562 131.201C82.1127 131.009 82.7385 131.088 83.3336 131.44C83.9528 131.746 84.3614 132.227 84.5594 132.881L85.2002 135.001C86.0756 133.17 87.1433 131.601 88.4032 130.295C89.6631 128.989 91.3297 128.034 93.4029 127.428C95.3034 126.872 97.0802 126.84 98.7333 127.332C100.421 127.814 101.862 128.724 103.056 130.063C104.286 131.391 105.181 132.986 105.744 134.847L110.183 149.526C110.381 150.181 110.305 150.803 109.957 151.393C109.643 151.972 109.158 152.357 108.502 152.549C107.845 152.741 107.225 152.679 106.64 152.362C106.055 152.045 105.664 151.56 105.466 150.905L101.184 136.742C99.9125 132.538 97.3764 130.992 93.5755 132.103C91.8478 132.608 90.4283 133.51 89.317 134.81C88.2403 136.1 87.3264 137.68 86.5755 139.549L91.2641 155.056C91.4621 155.711 91.3869 156.333 91.0386 156.922C90.7249 157.501 90.2397 157.887 89.5832 158.079ZM121.168 148.847C120.511 149.039 119.891 148.977 119.306 148.66C118.722 148.343 118.33 147.858 118.132 147.203L107.989 113.657C107.791 113.002 107.849 112.385 108.163 111.806C108.466 111.192 108.946 110.789 109.603 110.597C110.294 110.395 110.932 110.453 111.516 110.769C112.101 111.086 112.497 111.589 112.706 112.278L122.849 145.824C123.047 146.479 122.972 147.101 122.623 147.69C122.31 148.27 121.824 148.655 121.168 148.847ZM141.246 155.918C140.624 156.099 140.021 156.032 139.436 155.715C138.886 155.389 138.517 154.915 138.33 154.295C138.246 154.019 138.215 153.728 138.235 153.422L138.994 143.806L122.092 122.98C121.849 122.676 121.681 122.369 121.588 122.059C121.39 121.404 121.448 120.787 121.761 120.208C122.065 119.594 122.545 119.191 123.201 118.999C123.685 118.858 124.158 118.869 124.622 119.034C125.12 119.188 125.518 119.447 125.816 119.81L139.768 137.222L141.966 115.202C142.103 114.037 142.672 113.308 143.675 113.015C144.331 112.823 144.957 112.903 145.552 113.254C146.137 113.571 146.528 114.056 146.726 114.711C146.82 115.021 146.856 115.329 146.836 115.635L142.939 153.679C142.778 154.889 142.214 155.635 141.246 155.918ZM163.884 136.362C163.227 136.554 162.607 136.491 162.022 136.175C161.437 135.858 161.046 135.372 160.848 134.718L154.722 114.456L151.664 115.349C151.111 115.511 150.57 115.463 150.04 115.205C149.535 114.903 149.199 114.476 149.033 113.924C148.856 113.339 148.9 112.801 149.165 112.31C149.465 111.81 149.892 111.479 150.445 111.318L153.503 110.424L152.596 107.426C151.971 105.358 151.823 103.564 152.153 102.042C152.507 100.476 153.183 99.2285 154.18 98.2993C155.202 97.3255 156.37 96.6468 157.683 96.263C159.307 95.7883 160.914 95.6935 162.505 95.9787C162.902 96.05 163.257 96.2277 163.568 96.5117C163.904 96.7511 164.129 97.0604 164.244 97.4394C164.4 97.9563 164.351 98.477 164.096 99.0016C163.83 99.4918 163.438 99.8126 162.92 99.9641C162.54 100.075 162.127 100.14 161.681 100.157C160.82 100.297 160.338 100.381 160.235 100.411C158.818 100.826 157.846 101.466 157.318 102.333C156.825 103.19 156.839 104.479 157.36 106.202L158.219 109.045L164.698 107.152C165.286 106.98 165.827 107.028 166.321 107.296C166.816 107.564 167.152 107.991 167.329 108.577C167.496 109.128 167.452 109.666 167.197 110.191C166.931 110.681 166.505 111.012 165.917 111.183L159.438 113.077L165.565 133.339C165.763 133.994 165.688 134.616 165.339 135.205C165.026 135.784 164.54 136.17 163.884 136.362ZM196.4 127.139C192.772 128.2 189.353 128.336 186.144 127.549C182.935 126.762 180.166 125.19 177.836 122.833C175.506 120.476 173.76 117.498 172.596 113.9C171.571 110.262 171.38 106.83 172.022 103.605C172.664 100.379 174.11 97.5748 176.36 95.1918C178.611 92.8088 181.55 91.087 185.178 90.0266C188.807 88.9661 192.208 88.8345 195.383 89.6319C198.592 90.4191 201.366 92.0085 203.706 94.3998C206.071 96.7466 207.829 99.7018 208.982 103.265C209.997 106.869 210.171 110.306 209.505 113.576C208.863 116.802 207.417 119.606 205.166 121.989C202.95 124.362 200.028 126.079 196.4 127.139ZM195.071 122.746C197.836 121.938 200.05 120.615 201.713 118.779C203.377 116.943 204.421 114.8 204.847 112.35C205.272 109.901 205.078 107.332 204.265 104.644C203.453 101.956 202.188 99.7006 200.471 97.8772C198.753 96.0538 196.688 94.8198 194.274 94.1751C191.86 93.5305 189.271 93.6122 186.507 94.4201C183.708 95.2382 181.477 96.5655 179.813 98.4019C178.184 100.228 177.157 102.366 176.732 104.816C176.307 107.265 176.5 109.834 177.313 112.522C178.126 115.21 179.391 117.465 181.108 119.289C182.825 121.112 184.873 122.351 187.252 123.006C189.666 123.65 192.273 123.564 195.071 122.746Z" fill="#c8d505"/>
</svg>
